<mxfile host="app.diagrams.net" modified="2024-03-12T02:54:55.337Z" agent="Mozilla/5.0 (Macintosh; Intel Mac OS X 10_15_7) AppleWebKit/537.36 (KHTML, like Gecko) Chrome/122.0.0.0 Safari/537.36" etag="C16t7GRNBKto-tG7Peyk" version="24.0.5" type="github">
  <diagram name="第 1 页" id="UEVJXnBHdPSzS9DN39Q3">
    <mxGraphModel dx="1004" dy="585" grid="1" gridSize="10" guides="1" tooltips="1" connect="1" arrows="1" fold="1" page="1" pageScale="1" pageWidth="1169" pageHeight="1654" math="0" shadow="0">
      <root>
        <mxCell id="0" />
        <mxCell id="1" parent="0" />
        <mxCell id="U64g5x8YHhDghbwO3PD0-74" value="" style="rounded=1;whiteSpace=wrap;html=1;strokeColor=default;align=center;verticalAlign=middle;fontFamily=Helvetica;fontSize=12;fontColor=default;fillColor=default;dashed=1;" vertex="1" parent="1">
          <mxGeometry x="360" y="560" width="99" height="170" as="geometry" />
        </mxCell>
        <mxCell id="U64g5x8YHhDghbwO3PD0-43" value="" style="rounded=1;whiteSpace=wrap;html=1;strokeColor=default;align=center;verticalAlign=middle;fontFamily=Helvetica;fontSize=12;fontColor=default;fillColor=default;dashed=1" vertex="1" parent="1">
          <mxGeometry x="650" y="450" width="320" height="110" as="geometry" />
        </mxCell>
        <mxCell id="Y1PHwbgM20A0MRqoEUd3-15" value="" style="rounded=1;whiteSpace=wrap;html=1;dashed=1;" parent="1" vertex="1">
          <mxGeometry x="190" y="160" width="120" height="230" as="geometry" />
        </mxCell>
        <mxCell id="Y1PHwbgM20A0MRqoEUd3-2" value="" style="rounded=1;whiteSpace=wrap;html=1;dashed=1;" parent="1" vertex="1">
          <mxGeometry x="30" y="150" width="120" height="300" as="geometry" />
        </mxCell>
        <mxCell id="Y1PHwbgM20A0MRqoEUd3-6" value="&lt;b&gt;&lt;font style=&quot;font-size: 18px;&quot;&gt;外部访问&lt;/font&gt;&lt;/b&gt;" style="text;html=1;align=center;verticalAlign=middle;resizable=0;points=[];autosize=1;strokeColor=none;fillColor=none;fontFamily=Helvetica;fontSize=12;fontColor=default;" parent="1" vertex="1">
          <mxGeometry x="40" y="95" width="100" height="40" as="geometry" />
        </mxCell>
        <mxCell id="Y1PHwbgM20A0MRqoEUd3-7" value="PC端" style="fontColor=#0066CC;verticalAlign=top;verticalLabelPosition=bottom;labelPosition=center;align=center;html=1;outlineConnect=0;fillColor=#CCCCCC;strokeColor=#6881B3;gradientColor=none;gradientDirection=north;strokeWidth=2;shape=mxgraph.networks.pc;rounded=0;fontFamily=Helvetica;fontSize=12;" parent="1" vertex="1">
          <mxGeometry x="40" y="250" width="100" height="70" as="geometry" />
        </mxCell>
        <mxCell id="Y1PHwbgM20A0MRqoEUd3-9" value="&lt;b&gt;&lt;font style=&quot;font-size: 18px;&quot;&gt;前端接入&lt;/font&gt;&lt;/b&gt;" style="text;html=1;align=center;verticalAlign=middle;resizable=0;points=[];autosize=1;strokeColor=none;fillColor=none;fontFamily=Helvetica;fontSize=12;fontColor=default;" parent="1" vertex="1">
          <mxGeometry x="195" y="95" width="100" height="40" as="geometry" />
        </mxCell>
        <mxCell id="Y1PHwbgM20A0MRqoEUd3-10" value="" style="rounded=1;whiteSpace=wrap;html=1;dashed=1;verticalLabelPosition=bottom;sketch=0;fillColor=#A153A0;strokeColor=#ffffff;verticalAlign=top;points=[[0,0.5,0],[0.125,0.25,0],[0.25,0,0],[0.5,0,0],[0.75,0,0],[0.875,0.25,0],[1,0.5,0],[0.875,0.75,0],[0.75,1,0],[0.5,1,0],[0.125,0.75,0]];pointerEvents=1;shape=mxgraph.cisco_safe.compositeIcon;bgIcon=mxgraph.cisco_safe.design.blank_device;resIcon=mxgraph.cisco_safe.design.access_switch_2;" parent="1" vertex="1">
          <mxGeometry x="205" y="230" width="95" height="60" as="geometry" />
        </mxCell>
        <mxCell id="Y1PHwbgM20A0MRqoEUd3-12" value="" style="rounded=1;whiteSpace=wrap;html=1;dashed=1;verticalLabelPosition=bottom;sketch=0;fillColor=#A153A0;strokeColor=#ffffff;verticalAlign=top;points=[[0,0.5,0],[0.125,0.25,0],[0.25,0,0],[0.5,0,0],[0.75,0,0],[0.875,0.25,0],[1,0.5,0],[0.875,0.75,0],[0.75,1,0],[0.5,1,0],[0.125,0.75,0]];pointerEvents=1;shape=mxgraph.cisco_safe.compositeIcon;bgIcon=mxgraph.cisco_safe.design.blank_device;resIcon=mxgraph.cisco_safe.design.access_switch_2;" parent="1" vertex="1">
          <mxGeometry x="205" y="300" width="95" height="60" as="geometry" />
        </mxCell>
        <mxCell id="Y1PHwbgM20A0MRqoEUd3-13" value="Nginx负载均衡&lt;br&gt;Web前端服务器" style="text;html=1;align=center;verticalAlign=middle;resizable=0;points=[];autosize=1;strokeColor=none;fillColor=none;fontFamily=Helvetica;fontSize=12;fontColor=default;" parent="1" vertex="1">
          <mxGeometry x="190" y="180" width="110" height="40" as="geometry" />
        </mxCell>
        <mxCell id="Y1PHwbgM20A0MRqoEUd3-18" value="" style="sketch=0;points=[[0,0,0],[0.25,0,0],[0.5,0,0],[0.75,0,0],[1,0,0],[0,1,0],[0.25,1,0],[0.5,1,0],[0.75,1,0],[1,1,0],[0,0.25,0],[0,0.5,0],[0,0.75,0],[1,0.25,0],[1,0.5,0],[1,0.75,0]];outlineConnect=0;fontColor=#232F3E;fillColor=#E7157B;strokeColor=#ffffff;dashed=0;verticalLabelPosition=bottom;verticalAlign=top;align=center;html=1;fontSize=12;fontStyle=0;aspect=fixed;shape=mxgraph.aws4.resourceIcon;resIcon=mxgraph.aws4.api_gateway;rounded=0;fontFamily=Helvetica;" parent="1" vertex="1">
          <mxGeometry x="351" y="246" width="78" height="78" as="geometry" />
        </mxCell>
        <mxCell id="Y1PHwbgM20A0MRqoEUd3-19" value="&lt;span style=&quot;font-size: 18px;&quot;&gt;&lt;b&gt;鉴权&lt;/b&gt;&lt;/span&gt;" style="text;html=1;align=center;verticalAlign=middle;resizable=0;points=[];autosize=1;strokeColor=none;fillColor=none;fontFamily=Helvetica;fontSize=12;fontColor=default;" parent="1" vertex="1">
          <mxGeometry x="369" y="95" width="60" height="40" as="geometry" />
        </mxCell>
        <mxCell id="Y1PHwbgM20A0MRqoEUd3-20" value="Gateway网关鉴权" style="text;html=1;align=center;verticalAlign=middle;resizable=0;points=[];autosize=1;strokeColor=none;fillColor=none;fontFamily=Helvetica;fontSize=12;fontColor=default;" parent="1" vertex="1">
          <mxGeometry x="339" y="330" width="120" height="30" as="geometry" />
        </mxCell>
        <mxCell id="Y1PHwbgM20A0MRqoEUd3-21" value="" style="rounded=1;whiteSpace=wrap;html=1;dashed=1;" parent="1" vertex="1">
          <mxGeometry x="450" y="150" width="310" height="290" as="geometry" />
        </mxCell>
        <mxCell id="U64g5x8YHhDghbwO3PD0-1" value="" style="image;html=1;image=img/lib/clip_art/computers/Server_128x128.png;rounded=0;strokeColor=default;align=center;verticalAlign=middle;fontFamily=Helvetica;fontSize=12;fontColor=default;fillColor=default;" vertex="1" parent="1">
          <mxGeometry x="460" y="200" width="80" height="80" as="geometry" />
        </mxCell>
        <mxCell id="U64g5x8YHhDghbwO3PD0-2" value="" style="image;html=1;image=img/lib/clip_art/computers/Server_128x128.png;rounded=0;strokeColor=default;align=center;verticalAlign=middle;fontFamily=Helvetica;fontSize=12;fontColor=default;fillColor=default;" vertex="1" parent="1">
          <mxGeometry x="459" y="300" width="80" height="80" as="geometry" />
        </mxCell>
        <mxCell id="U64g5x8YHhDghbwO3PD0-3" value="" style="rounded=0;whiteSpace=wrap;html=1;strokeColor=default;align=center;verticalAlign=middle;fontFamily=Helvetica;fontSize=12;fontColor=default;fillColor=default;dashed=1;" vertex="1" parent="1">
          <mxGeometry x="550" y="170" width="190" height="240" as="geometry" />
        </mxCell>
        <mxCell id="U64g5x8YHhDghbwO3PD0-4" value="CMDB模块" style="text;html=1;align=center;verticalAlign=middle;resizable=0;points=[];autosize=1;strokeColor=none;fillColor=none;fontFamily=Helvetica;fontSize=12;fontColor=default;" vertex="1" parent="1">
          <mxGeometry x="540" y="418" width="80" height="30" as="geometry" />
        </mxCell>
        <mxCell id="U64g5x8YHhDghbwO3PD0-5" value="应用服务器2" style="text;html=1;align=center;verticalAlign=middle;resizable=0;points=[];autosize=1;strokeColor=none;fillColor=none;fontFamily=Helvetica;fontSize=12;fontColor=default;" vertex="1" parent="1">
          <mxGeometry x="455" y="360" width="90" height="30" as="geometry" />
        </mxCell>
        <mxCell id="U64g5x8YHhDghbwO3PD0-6" value="应用服务器1" style="text;html=1;align=center;verticalAlign=middle;resizable=0;points=[];autosize=1;strokeColor=none;fillColor=none;fontFamily=Helvetica;fontSize=12;fontColor=default;" vertex="1" parent="1">
          <mxGeometry x="454" y="260" width="90" height="30" as="geometry" />
        </mxCell>
        <mxCell id="U64g5x8YHhDghbwO3PD0-7" value="cmdbService" style="rounded=1;whiteSpace=wrap;html=1;strokeColor=default;align=center;verticalAlign=middle;fontFamily=Helvetica;fontSize=12;fontColor=default;fillColor=default;" vertex="1" parent="1">
          <mxGeometry x="562.5" y="180" width="75" height="50" as="geometry" />
        </mxCell>
        <mxCell id="U64g5x8YHhDghbwO3PD0-8" value="collectorCenter" style="rounded=1;whiteSpace=wrap;html=1;strokeColor=default;align=center;verticalAlign=middle;fontFamily=Helvetica;fontSize=12;fontColor=default;fillColor=default;" vertex="1" parent="1">
          <mxGeometry x="645" y="180" width="85" height="50" as="geometry" />
        </mxCell>
        <mxCell id="U64g5x8YHhDghbwO3PD0-9" value="apiService" style="rounded=1;whiteSpace=wrap;html=1;strokeColor=default;align=center;verticalAlign=middle;fontFamily=Helvetica;fontSize=12;fontColor=default;fillColor=default;" vertex="1" parent="1">
          <mxGeometry x="562.5" y="240" width="75" height="50" as="geometry" />
        </mxCell>
        <mxCell id="U64g5x8YHhDghbwO3PD0-10" value="schduler" style="rounded=1;whiteSpace=wrap;html=1;strokeColor=default;align=center;verticalAlign=middle;fontFamily=Helvetica;fontSize=12;fontColor=default;fillColor=default;" vertex="1" parent="1">
          <mxGeometry x="645" y="240" width="85" height="50" as="geometry" />
        </mxCell>
        <mxCell id="U64g5x8YHhDghbwO3PD0-11" value="idcManager" style="rounded=1;whiteSpace=wrap;html=1;strokeColor=default;align=center;verticalAlign=middle;fontFamily=Helvetica;fontSize=12;fontColor=default;fillColor=default;" vertex="1" parent="1">
          <mxGeometry x="562.5" y="300" width="75" height="46" as="geometry" />
        </mxCell>
        <mxCell id="U64g5x8YHhDghbwO3PD0-12" value="reciver" style="rounded=1;whiteSpace=wrap;html=1;strokeColor=default;align=center;verticalAlign=middle;fontFamily=Helvetica;fontSize=12;fontColor=default;fillColor=default;" vertex="1" parent="1">
          <mxGeometry x="562.5" y="360" width="77.5" height="46" as="geometry" />
        </mxCell>
        <mxCell id="U64g5x8YHhDghbwO3PD0-13" value="gateway" style="rounded=1;whiteSpace=wrap;html=1;strokeColor=default;align=center;verticalAlign=middle;fontFamily=Helvetica;fontSize=12;fontColor=default;fillColor=default;" vertex="1" parent="1">
          <mxGeometry x="645" y="300" width="85" height="46" as="geometry" />
        </mxCell>
        <mxCell id="U64g5x8YHhDghbwO3PD0-18" value="......." style="rounded=1;whiteSpace=wrap;html=1;strokeColor=default;align=center;verticalAlign=middle;fontFamily=Helvetica;fontSize=12;fontColor=default;fillColor=default;" vertex="1" parent="1">
          <mxGeometry x="645" y="360" width="85" height="46" as="geometry" />
        </mxCell>
        <mxCell id="U64g5x8YHhDghbwO3PD0-21" value="" style="rounded=1;whiteSpace=wrap;html=1;strokeColor=default;align=center;verticalAlign=middle;fontFamily=Helvetica;fontSize=12;fontColor=default;fillColor=default;dashed=1;" vertex="1" parent="1">
          <mxGeometry x="472.6" y="570" width="290" height="257" as="geometry" />
        </mxCell>
        <mxCell id="U64g5x8YHhDghbwO3PD0-22" value="" style="pointerEvents=1;shadow=0;dashed=0;html=1;strokeColor=none;fillColor=#4495D1;labelPosition=center;verticalLabelPosition=bottom;verticalAlign=top;align=center;outlineConnect=0;shape=mxgraph.veeam.2d.proxy;rounded=0;fontFamily=Helvetica;fontSize=12;fontColor=default;" vertex="1" parent="1">
          <mxGeometry x="595.2" y="582.2" width="44.8" height="44.8" as="geometry" />
        </mxCell>
        <mxCell id="U64g5x8YHhDghbwO3PD0-30" style="edgeStyle=orthogonalEdgeStyle;rounded=0;orthogonalLoop=1;jettySize=auto;html=1;fontFamily=Helvetica;fontSize=12;fontColor=default;" edge="1" parent="1" source="U64g5x8YHhDghbwO3PD0-24" target="U64g5x8YHhDghbwO3PD0-22">
          <mxGeometry relative="1" as="geometry" />
        </mxCell>
        <mxCell id="U64g5x8YHhDghbwO3PD0-24" value="processSampler&lt;br&gt;(cmdbData)" style="html=1;dashed=0;whiteSpace=wrap;rounded=0;strokeColor=default;align=center;verticalAlign=middle;fontFamily=Helvetica;fontSize=12;fontColor=default;fillColor=default;" vertex="1" parent="1">
          <mxGeometry x="486.6" y="647" width="95" height="50" as="geometry" />
        </mxCell>
        <mxCell id="U64g5x8YHhDghbwO3PD0-31" style="edgeStyle=orthogonalEdgeStyle;rounded=0;orthogonalLoop=1;jettySize=auto;html=1;fontFamily=Helvetica;fontSize=12;fontColor=default;" edge="1" parent="1" source="U64g5x8YHhDghbwO3PD0-25" target="U64g5x8YHhDghbwO3PD0-22">
          <mxGeometry relative="1" as="geometry" />
        </mxCell>
        <mxCell id="U64g5x8YHhDghbwO3PD0-25" value="metricSampler&lt;br&gt;(metricData)" style="html=1;dashed=0;whiteSpace=wrap;rounded=0;strokeColor=default;align=center;verticalAlign=middle;fontFamily=Helvetica;fontSize=12;fontColor=default;fillColor=default;" vertex="1" parent="1">
          <mxGeometry x="652.6" y="647" width="97.5" height="50" as="geometry" />
        </mxCell>
        <mxCell id="U64g5x8YHhDghbwO3PD0-34" value="easyAgent&lt;div&gt;&lt;br&gt;&lt;/div&gt;" style="text;html=1;align=center;verticalAlign=middle;resizable=0;points=[];autosize=1;strokeColor=none;fillColor=none;fontFamily=Helvetica;fontSize=12;fontColor=default;" vertex="1" parent="1">
          <mxGeometry x="577.6" y="563.9" width="80" height="40" as="geometry" />
        </mxCell>
        <mxCell id="U64g5x8YHhDghbwO3PD0-37" value="" style="endArrow=classic;html=1;rounded=0;fontFamily=Helvetica;fontSize=12;fontColor=default;" edge="1" parent="1">
          <mxGeometry width="50" height="50" relative="1" as="geometry">
            <mxPoint x="613.45" y="527" as="sourcePoint" />
            <mxPoint x="613" y="450" as="targetPoint" />
            <Array as="points">
              <mxPoint x="613" y="560" />
            </Array>
          </mxGeometry>
        </mxCell>
        <mxCell id="U64g5x8YHhDghbwO3PD0-38" value="agent数据采集" style="text;html=1;align=center;verticalAlign=middle;resizable=0;points=[];autosize=1;strokeColor=none;fillColor=none;fontFamily=Helvetica;fontSize=12;fontColor=default;" vertex="1" parent="1">
          <mxGeometry x="520" y="500" width="100" height="30" as="geometry" />
        </mxCell>
        <mxCell id="U64g5x8YHhDghbwO3PD0-39" value="easyCore&lt;div&gt;easyTSDB&lt;/div&gt;" style="shape=datastore;whiteSpace=wrap;html=1;rounded=0;strokeColor=default;align=center;verticalAlign=middle;fontFamily=Helvetica;fontSize=12;fontColor=default;fillColor=default;" vertex="1" parent="1">
          <mxGeometry x="690" y="460" width="60" height="60" as="geometry" />
        </mxCell>
        <mxCell id="U64g5x8YHhDghbwO3PD0-40" value="easyCore&lt;div&gt;easyTSDB&lt;/div&gt;" style="shape=datastore;whiteSpace=wrap;html=1;rounded=0;strokeColor=default;align=center;verticalAlign=middle;fontFamily=Helvetica;fontSize=12;fontColor=default;fillColor=default;" vertex="1" parent="1">
          <mxGeometry x="780" y="460" width="60" height="60" as="geometry" />
        </mxCell>
        <mxCell id="U64g5x8YHhDghbwO3PD0-42" value="easyCore&lt;div&gt;easyTSDB&lt;/div&gt;" style="shape=datastore;whiteSpace=wrap;html=1;rounded=0;strokeColor=default;align=center;verticalAlign=middle;fontFamily=Helvetica;fontSize=12;fontColor=default;fillColor=default;" vertex="1" parent="1">
          <mxGeometry x="870" y="460" width="60" height="60" as="geometry" />
        </mxCell>
        <mxCell id="U64g5x8YHhDghbwO3PD0-47" value="&lt;div&gt;Cache&amp;amp;&lt;span style=&quot;background-color: initial;&quot;&gt;Queue&lt;/span&gt;&lt;/div&gt;" style="sketch=0;outlineConnect=0;fontColor=#232F3E;gradientColor=none;strokeColor=#232F3E;fillColor=#ffffff;dashed=0;verticalLabelPosition=bottom;verticalAlign=top;align=center;html=1;fontSize=12;fontStyle=0;aspect=fixed;shape=mxgraph.aws4.resourceIcon;resIcon=mxgraph.aws4.queue;rounded=0;fontFamily=Helvetica;" vertex="1" parent="1">
          <mxGeometry x="760" y="250" width="85" height="85" as="geometry" />
        </mxCell>
        <mxCell id="U64g5x8YHhDghbwO3PD0-48" value="" style="rounded=1;whiteSpace=wrap;html=1;dashed=1;" vertex="1" parent="1">
          <mxGeometry x="850" y="150" width="300" height="290" as="geometry" />
        </mxCell>
        <mxCell id="U64g5x8YHhDghbwO3PD0-50" value="" style="image;html=1;image=img/lib/clip_art/computers/Server_128x128.png;rounded=0;strokeColor=default;align=center;verticalAlign=middle;fontFamily=Helvetica;fontSize=12;fontColor=default;fillColor=default;" vertex="1" parent="1">
          <mxGeometry x="860" y="200" width="80" height="80" as="geometry" />
        </mxCell>
        <mxCell id="U64g5x8YHhDghbwO3PD0-51" value="" style="image;html=1;image=img/lib/clip_art/computers/Server_128x128.png;rounded=0;strokeColor=default;align=center;verticalAlign=middle;fontFamily=Helvetica;fontSize=12;fontColor=default;fillColor=default;" vertex="1" parent="1">
          <mxGeometry x="860" y="300" width="80" height="80" as="geometry" />
        </mxCell>
        <mxCell id="U64g5x8YHhDghbwO3PD0-52" value="应用服务器1" style="text;html=1;align=center;verticalAlign=middle;resizable=0;points=[];autosize=1;strokeColor=none;fillColor=none;fontFamily=Helvetica;fontSize=12;fontColor=default;" vertex="1" parent="1">
          <mxGeometry x="855" y="270" width="90" height="30" as="geometry" />
        </mxCell>
        <mxCell id="U64g5x8YHhDghbwO3PD0-53" value="应用服务器2" style="text;html=1;align=center;verticalAlign=middle;resizable=0;points=[];autosize=1;strokeColor=none;fillColor=none;fontFamily=Helvetica;fontSize=12;fontColor=default;" vertex="1" parent="1">
          <mxGeometry x="855" y="368" width="90" height="30" as="geometry" />
        </mxCell>
        <mxCell id="U64g5x8YHhDghbwO3PD0-54" value="监控模块" style="text;html=1;align=center;verticalAlign=middle;resizable=0;points=[];autosize=1;strokeColor=none;fillColor=none;fontFamily=Helvetica;fontSize=12;fontColor=default;" vertex="1" parent="1">
          <mxGeometry x="980" y="420" width="70" height="30" as="geometry" />
        </mxCell>
        <mxCell id="U64g5x8YHhDghbwO3PD0-55" value="" style="rounded=0;whiteSpace=wrap;html=1;strokeColor=default;align=center;verticalAlign=middle;fontFamily=Helvetica;fontSize=12;fontColor=default;fillColor=default;dashed=1;" vertex="1" parent="1">
          <mxGeometry x="945" y="180" width="190" height="240" as="geometry" />
        </mxCell>
        <mxCell id="U64g5x8YHhDghbwO3PD0-56" value="otelcol" style="rounded=1;whiteSpace=wrap;html=1;strokeColor=default;align=center;verticalAlign=middle;fontFamily=Helvetica;fontSize=12;fontColor=default;fillColor=default;" vertex="1" parent="1">
          <mxGeometry x="950" y="190" width="75" height="50" as="geometry" />
        </mxCell>
        <mxCell id="U64g5x8YHhDghbwO3PD0-57" value="collectorService" style="rounded=1;whiteSpace=wrap;html=1;strokeColor=default;align=center;verticalAlign=middle;fontFamily=Helvetica;fontSize=12;fontColor=default;fillColor=default;" vertex="1" parent="1">
          <mxGeometry x="1040" y="190" width="75" height="50" as="geometry" />
        </mxCell>
        <mxCell id="U64g5x8YHhDghbwO3PD0-58" value="dataLoader" style="rounded=1;whiteSpace=wrap;html=1;strokeColor=default;align=center;verticalAlign=middle;fontFamily=Helvetica;fontSize=12;fontColor=default;fillColor=default;" vertex="1" parent="1">
          <mxGeometry x="950" y="246" width="75" height="50" as="geometry" />
        </mxCell>
        <mxCell id="U64g5x8YHhDghbwO3PD0-59" value="metadataCenter" style="rounded=1;whiteSpace=wrap;html=1;strokeColor=default;align=center;verticalAlign=middle;fontFamily=Helvetica;fontSize=12;fontColor=default;fillColor=default;" vertex="1" parent="1">
          <mxGeometry x="1040" y="250" width="75" height="50" as="geometry" />
        </mxCell>
        <mxCell id="U64g5x8YHhDghbwO3PD0-60" value="alertService" style="rounded=1;whiteSpace=wrap;html=1;strokeColor=default;align=center;verticalAlign=middle;fontFamily=Helvetica;fontSize=12;fontColor=default;fillColor=default;" vertex="1" parent="1">
          <mxGeometry x="950" y="305" width="75" height="50" as="geometry" />
        </mxCell>
        <mxCell id="U64g5x8YHhDghbwO3PD0-61" value="alertChannelGo" style="rounded=1;whiteSpace=wrap;html=1;strokeColor=default;align=center;verticalAlign=middle;fontFamily=Helvetica;fontSize=12;fontColor=default;fillColor=default;" vertex="1" parent="1">
          <mxGeometry x="1040" y="310" width="75" height="50" as="geometry" />
        </mxCell>
        <mxCell id="U64g5x8YHhDghbwO3PD0-63" value="collectorProxy" style="rounded=1;whiteSpace=wrap;html=1;strokeColor=default;align=center;verticalAlign=middle;fontFamily=Helvetica;fontSize=12;fontColor=default;fillColor=default;" vertex="1" parent="1">
          <mxGeometry x="950" y="368" width="75" height="50" as="geometry" />
        </mxCell>
        <mxCell id="U64g5x8YHhDghbwO3PD0-64" value="......." style="rounded=1;whiteSpace=wrap;html=1;strokeColor=default;align=center;verticalAlign=middle;fontFamily=Helvetica;fontSize=12;fontColor=default;fillColor=default;" vertex="1" parent="1">
          <mxGeometry x="1035" y="372" width="85" height="46" as="geometry" />
        </mxCell>
        <mxCell id="U64g5x8YHhDghbwO3PD0-66" value="dataBase Cluster" style="text;html=1;align=center;verticalAlign=middle;resizable=0;points=[];autosize=1;strokeColor=none;fillColor=none;fontFamily=Helvetica;fontSize=12;fontColor=default;" vertex="1" parent="1">
          <mxGeometry x="760" y="557" width="120" height="30" as="geometry" />
        </mxCell>
        <mxCell id="U64g5x8YHhDghbwO3PD0-67" value="" style="endArrow=none;html=1;rounded=0;fontFamily=Helvetica;fontSize=15;fontColor=default;fontStyle=1" edge="1" parent="1">
          <mxGeometry width="50" height="50" relative="1" as="geometry">
            <mxPoint x="170" y="110" as="sourcePoint" />
            <mxPoint x="170" y="90" as="targetPoint" />
            <Array as="points">
              <mxPoint x="170" y="530" />
            </Array>
          </mxGeometry>
        </mxCell>
        <mxCell id="U64g5x8YHhDghbwO3PD0-68" value="" style="endArrow=none;html=1;rounded=0;fontFamily=Helvetica;fontSize=15;fontColor=default;fontStyle=1" edge="1" parent="1">
          <mxGeometry width="50" height="50" relative="1" as="geometry">
            <mxPoint x="330" y="110" as="sourcePoint" />
            <mxPoint x="330" y="90" as="targetPoint" />
            <Array as="points">
              <mxPoint x="330" y="530" />
              <mxPoint x="330" y="330" />
            </Array>
          </mxGeometry>
        </mxCell>
        <mxCell id="U64g5x8YHhDghbwO3PD0-70" value="" style="rounded=1;whiteSpace=wrap;html=1;strokeColor=default;align=center;verticalAlign=middle;fontFamily=Helvetica;fontSize=12;fontColor=default;fillColor=default;dashed=1;" vertex="1" parent="1">
          <mxGeometry x="465" y="20" width="275" height="120" as="geometry" />
        </mxCell>
        <mxCell id="U64g5x8YHhDghbwO3PD0-71" value="" style="image;html=1;image=img/lib/clip_art/computers/Server_128x128.png;rounded=0;strokeColor=default;align=center;verticalAlign=middle;fontFamily=Helvetica;fontSize=12;fontColor=default;fillColor=default;" vertex="1" parent="1">
          <mxGeometry x="470" y="70" width="80" height="80" as="geometry" />
        </mxCell>
        <mxCell id="U64g5x8YHhDghbwO3PD0-72" value="" style="image;html=1;image=img/lib/clip_art/computers/Server_128x128.png;rounded=0;strokeColor=default;align=center;verticalAlign=middle;fontFamily=Helvetica;fontSize=12;fontColor=default;fillColor=default;" vertex="1" parent="1">
          <mxGeometry x="472.6" y="15" width="80" height="80" as="geometry" />
        </mxCell>
        <mxCell id="U64g5x8YHhDghbwO3PD0-73" value="资产设备" style="verticalLabelPosition=bottom;html=1;verticalAlign=top;strokeWidth=1;align=center;outlineConnect=0;dashed=0;outlineConnect=0;shape=mxgraph.aws3d.client;aspect=fixed;strokeColor=none;fillColor=#777777;rounded=0;fontFamily=Helvetica;fontSize=12;fontColor=default;" vertex="1" parent="1">
          <mxGeometry x="380" y="582.2" width="60" height="104" as="geometry" />
        </mxCell>
        <mxCell id="U64g5x8YHhDghbwO3PD0-75" value="资产设备" style="verticalLabelPosition=bottom;html=1;verticalAlign=top;strokeWidth=1;align=center;outlineConnect=0;dashed=0;outlineConnect=0;shape=mxgraph.aws3d.client;aspect=fixed;strokeColor=none;fillColor=#777777;rounded=0;fontFamily=Helvetica;fontSize=12;fontColor=default;" vertex="1" parent="1">
          <mxGeometry x="597.6" y="697" width="60" height="104" as="geometry" />
        </mxCell>
        <mxCell id="U64g5x8YHhDghbwO3PD0-79" value="" style="curved=1;endArrow=classic;html=1;rounded=0;fontFamily=Helvetica;fontSize=12;fontColor=default;" edge="1" parent="1">
          <mxGeometry width="50" height="50" relative="1" as="geometry">
            <mxPoint x="400" y="560" as="sourcePoint" />
            <mxPoint x="520" y="460" as="targetPoint" />
            <Array as="points">
              <mxPoint x="450" y="560" />
              <mxPoint x="400" y="510" />
            </Array>
          </mxGeometry>
        </mxCell>
        <mxCell id="U64g5x8YHhDghbwO3PD0-80" value="agentless数据采集" style="text;html=1;align=center;verticalAlign=middle;resizable=0;points=[];autosize=1;strokeColor=none;fillColor=none;fontFamily=Helvetica;fontSize=12;fontColor=default;" vertex="1" parent="1">
          <mxGeometry x="350" y="460" width="120" height="30" as="geometry" />
        </mxCell>
        <mxCell id="U64g5x8YHhDghbwO3PD0-81" value="" style="rounded=1;whiteSpace=wrap;html=1;strokeColor=default;align=center;verticalAlign=middle;fontFamily=Helvetica;fontSize=12;fontColor=default;fillColor=default;dashed=1;" vertex="1" parent="1">
          <mxGeometry x="563" y="30" width="167" height="100" as="geometry" />
        </mxCell>
        <mxCell id="U64g5x8YHhDghbwO3PD0-82" value="itscHandler" style="rounded=1;whiteSpace=wrap;html=1;strokeColor=default;align=center;verticalAlign=middle;fontFamily=Helvetica;fontSize=12;fontColor=default;fillColor=default;" vertex="1" parent="1">
          <mxGeometry x="570" y="40" width="75" height="40" as="geometry" />
        </mxCell>
        <mxCell id="U64g5x8YHhDghbwO3PD0-83" value="itscMobile" style="rounded=1;whiteSpace=wrap;html=1;strokeColor=default;align=center;verticalAlign=middle;fontFamily=Helvetica;fontSize=12;fontColor=default;fillColor=default;" vertex="1" parent="1">
          <mxGeometry x="650" y="40" width="75" height="40" as="geometry" />
        </mxCell>
        <mxCell id="U64g5x8YHhDghbwO3PD0-84" value="stateWorkFlow" style="rounded=1;whiteSpace=wrap;html=1;strokeColor=default;align=center;verticalAlign=middle;fontFamily=Helvetica;fontSize=12;fontColor=default;fillColor=default;" vertex="1" parent="1">
          <mxGeometry x="570" y="85" width="75" height="35" as="geometry" />
        </mxCell>
        <mxCell id="U64g5x8YHhDghbwO3PD0-85" value="..." style="rounded=1;whiteSpace=wrap;html=1;strokeColor=default;align=center;verticalAlign=middle;fontFamily=Helvetica;fontSize=12;fontColor=default;fillColor=default;" vertex="1" parent="1">
          <mxGeometry x="650" y="85" width="75" height="35" as="geometry" />
        </mxCell>
        <mxCell id="U64g5x8YHhDghbwO3PD0-86" value="" style="image;html=1;image=img/lib/clip_art/computers/Server_128x128.png;rounded=0;strokeColor=default;align=center;verticalAlign=middle;fontFamily=Helvetica;fontSize=12;fontColor=default;fillColor=default;" vertex="1" parent="1">
          <mxGeometry x="680" y="522.2" width="80" height="37.8" as="geometry" />
        </mxCell>
        <mxCell id="U64g5x8YHhDghbwO3PD0-88" value="" style="image;html=1;image=img/lib/clip_art/computers/Server_128x128.png;rounded=0;strokeColor=default;align=center;verticalAlign=middle;fontFamily=Helvetica;fontSize=12;fontColor=default;fillColor=default;" vertex="1" parent="1">
          <mxGeometry x="770" y="526.1" width="80" height="37.8" as="geometry" />
        </mxCell>
        <mxCell id="U64g5x8YHhDghbwO3PD0-89" value="" style="image;html=1;image=img/lib/clip_art/computers/Server_128x128.png;rounded=0;strokeColor=default;align=center;verticalAlign=middle;fontFamily=Helvetica;fontSize=12;fontColor=default;fillColor=default;" vertex="1" parent="1">
          <mxGeometry x="865" y="526.1" width="80" height="37.8" as="geometry" />
        </mxCell>
      </root>
    </mxGraphModel>
  </diagram>
</mxfile>
